<?xml version="1.0" encoding="UTF-8"?>
<svg version="1.1" xmlns="http://www.w3.org/2000/svg" width="500" height="500">
<path d="M0 0 C3.54850599 1.75306184 6.92440632 3.49591762 10.1796875 5.75 C10.93531982 6.27029785 11.69095215 6.7905957 12.46948242 7.32666016 C13.66021362 8.15496338 13.66021362 8.15496338 14.875 9 C16.128573 9.8650415 16.128573 9.8650415 17.4074707 10.74755859 C19.12083999 11.93012318 20.83316471 13.11420267 22.54443359 14.29980469 C25.43559118 16.30159644 28.33367937 18.29313137 31.23291016 20.28320312 C33.1913171 21.62762038 35.14857399 22.97369528 37.10546875 24.3203125 C41.06952102 27.04802678 45.03467307 29.77413916 49 32.5 C52.96532693 35.22586084 56.93047898 37.95197322 60.89453125 40.6796875 C68.08951135 45.62983381 75.29104237 50.57022781 82.5 55.5 C90.35787815 60.87352988 98.20611092 66.2608901 106.04833984 71.65722656 C109.36491763 73.93908519 112.68250537 76.21947463 116 78.5 C119.96532693 81.22586084 123.93047898 83.95197322 127.89453125 86.6796875 C135.08951135 91.62983381 142.29104237 96.57022781 149.5 101.5 C156.69882997 106.42284649 163.89083541 111.35542331 171.07421875 116.30078125 C173.8024199 118.17843769 176.53473823 120.04992718 179.26953125 121.91796875 C179.97762939 122.40249512 180.68572754 122.88702148 181.4152832 123.38623047 C182.75008323 124.29944065 184.0857759 125.2113483 185.42260742 126.12158203 C186.62233768 126.94325464 187.81413622 127.77668802 188.99581146 128.62412071 C190.97378365 130.0273151 190.97378365 130.0273151 193.08123016 131.16217995 C196.34047837 133.15574637 198.60344978 134.66879983 199.72340393 138.42843246 C199.98637434 141.48406569 199.98972046 144.44712125 199.90820312 147.51318359 C199.90937134 148.66498108 199.91053955 149.81677856 199.91174316 151.003479 C199.90617832 154.8030336 199.84399184 158.59943269 199.78125 162.3984375 C199.76632604 165.03543381 199.75493976 167.67245233 199.74694824 170.30947876 C199.72212163 176.53594775 199.65652805 182.76128777 199.57615232 188.98726046 C199.4866102 196.07779396 199.44271688 203.16838251 199.40258884 210.259341 C199.31905623 224.84014202 199.17841985 239.42005521 199 254 C191.32713535 249.63939458 191.32713535 249.63939458 187.72265625 247.15234375 C186.5944043 246.37697266 186.5944043 246.37697266 185.44335938 245.5859375 C184.65767578 245.04195312 183.87199219 244.49796875 183.0625 243.9375 C182.22912109 243.36386719 181.39574219 242.79023438 180.53710938 242.19921875 C178.8326994 241.02573313 177.12908043 239.85109777 175.42626953 238.67529297 C172.5943528 236.71990833 169.75866087 234.77006676 166.92236328 232.82104492 C165.6327462 231.93482216 164.34336094 231.04826198 163.05419922 230.16137695 C154.71426271 224.42418617 146.35609032 218.71362328 138 213 C126.97452865 205.46114063 115.95481042 197.91417967 104.95166016 190.34277344 C101.63508236 188.06091481 98.3174829 185.78054245 95 183.5 C93.66666192 182.58334024 92.33332858 181.66667358 91 180.75 C90.34 180.29625 89.68 179.8425 89 179.375 C81.66666667 174.33333333 74.33333333 169.29166667 67 164.25 C66.00963745 163.5691333 66.00963745 163.5691333 64.99926758 162.87451172 C63.66835665 161.9595003 62.33746466 161.04446131 61.0065918 160.12939453 C57.63635196 157.81217419 54.26576567 155.49546068 50.89453125 153.1796875 C44.81829023 149.00512649 38.74491995 144.82685586 32.6875 140.625 C26.38281124 136.25353871 20.04944254 131.92447606 13.7097168 127.60400391 C12.94183838 127.07983887 12.17395996 126.55567383 11.3828125 126.015625 C10.70621582 125.55446289 10.02961914 125.09330078 9.33251953 124.61816406 C8.56278809 124.08416992 7.79305664 123.55017578 7 123 C6.42873792 122.71916848 5.85747583 122.43833696 5.26890278 122.1489954 C3.11704178 120.95175063 1.6234003 119.86258879 0 118 C-1.03115765 114.20948301 -0.8852626 110.50712679 -0.79467773 106.6003418 C-0.79569992 105.44869034 -0.79672211 104.29703888 -0.79777527 103.11048889 C-0.79290033 99.30579137 -0.7384558 95.50349674 -0.68359375 91.69921875 C-0.67053742 89.06078909 -0.66057342 86.42234246 -0.65357971 83.78388977 C-0.63184288 77.55043241 -0.57442887 71.31783684 -0.50413328 65.08475858 C-0.4258272 57.98695534 -0.38738793 50.88911043 -0.35226524 43.7909826 C-0.27914317 29.19354432 -0.15605897 14.59678422 0 0 Z " fill="#29ABE2" transform="translate(301,21)"/>
<path d="M0 0 C3.07759277 1.20052323 5.75806881 2.34860394 8.43359375 4.29296875 C9.07111572 4.7506665 9.7086377 5.20836426 10.36547852 5.67993164 C11.39112915 6.42617798 11.39112915 6.42617798 12.4375 7.1875 C19.25117319 12.07222239 26.12724642 16.85195427 33.0625 21.5625 C34.94141125 22.8398364 36.82031757 24.11718004 38.69921875 25.39453125 C39.59946777 26.00635254 40.4997168 26.61817383 41.42724609 27.24853516 C45.0840881 29.73801936 48.73104134 32.24170844 52.375 34.75 C53.3335791 35.40971802 53.3335791 35.40971802 54.31152344 36.08276367 C55.57773045 36.95445371 56.84384492 37.82627818 58.10986328 38.69824219 C61.34321147 40.92508442 64.57767245 43.15030744 67.8125 45.375 C68.46524902 45.82391602 69.11799805 46.27283203 69.79052734 46.73535156 C75.83135217 50.88777669 81.88188728 55.02595885 87.93286133 59.16357422 C93.60853531 63.04544784 99.27679013 66.93795216 104.94140625 70.8359375 C110.12167894 74.39930599 115.30984992 77.95103702 120.5 81.5 C126.98706446 85.93577763 133.46746559 90.38103266 139.94140625 94.8359375 C145.93049323 98.95566731 151.93009174 103.05995928 157.93139648 107.16186523 C161.66856871 109.71708334 165.40342877 112.27541001 169.12890625 114.84765625 C169.7447653 115.27076458 170.36062435 115.69387291 170.9951458 116.1298027 C172.28904442 117.02648749 173.5762202 117.93304242 174.85298347 118.85396194 C178.34183998 121.33556766 181.75326872 123.41845121 185.65084839 125.199646 C191.59666757 128.11483346 197.57557339 131.18138819 200.00037384 137.68180847 C201.56581094 145.78308971 201.06369776 154.00277923 200.7578125 162.203125 C200.72419699 164.85425669 200.69771236 167.50451013 200.68063354 170.15570068 C200.62496691 176.39481664 200.47770068 182.62816684 200.29634273 188.8647573 C200.09422151 195.9716984 199.99595952 203.07893478 199.9058249 210.18804026 C199.71832969 224.79498421 199.40231986 239.39741156 199 254 C197.27703337 252.90875265 195.55475834 251.81641329 193.83276367 250.72363281 C192.87359543 250.11545715 191.91442719 249.50728149 190.92619324 248.88067627 C186.32778161 245.92525845 181.81950768 242.84232834 177.3125 239.75 C175.88139893 238.77111816 175.88139893 238.77111816 174.42138672 237.77246094 C171.61279976 235.85042408 168.80602537 233.92577413 166 232 C165.23896973 231.47792969 164.47793945 230.95585937 163.69384766 230.41796875 C159.76113504 227.71917313 155.83140939 225.01606654 151.90332031 222.31054688 C148.60353046 220.0384494 145.30164258 217.76940398 142 215.5 C138.03465906 212.77415956 134.069521 210.04802677 130.10546875 207.3203125 C122.91048865 202.37016619 115.70895763 197.42977219 108.5 192.5 C99.34283146 186.23796364 90.20024499 179.9549293 81.06152344 173.66601562 C73.21488562 168.26677212 65.36223632 162.87651016 57.5 157.5 C49.64212185 152.12647012 41.79388908 146.7391099 33.95166016 141.34277344 C31.38707699 139.57829916 28.82186577 137.81473927 26.2565918 136.05126953 C24.93716727 135.14424547 23.62355173 134.22844778 22.3250246 133.29175091 C18.90741849 130.86446278 15.59602148 128.73510565 11.77368164 127.00187683 C7.1103394 124.71425932 3.06652078 122.28349112 0 118 C-2.89030437 109.48626126 -1.85768262 99.95765916 -1.5625 91.11328125 C-1.53262789 88.48348393 -1.50986669 85.85359707 -1.49389648 83.22367859 C-1.44439045 77.0311369 -1.31344123 70.84317781 -1.15230465 64.65264434 C-0.97272872 57.59876116 -0.88531707 50.54464503 -0.80517769 43.48904097 C-0.63845622 28.99034218 -0.35750075 14.49523515 0 0 Z " fill="#29ABE2" transform="translate(0,226)"/>
<path d="M0 0 C5.8132203 3.09621698 11.24387322 6.43397317 16.5625 10.3125 C24.69436577 16.15314884 32.99941421 21.7112448 41.36157227 27.21606445 C46.13181143 30.36889378 50.83038072 33.57581621 55.43359375 36.96875 C59.32034732 39.82571565 63.27243211 42.52279386 67.32421875 45.140625 C68.37158203 45.81867188 69.41894531 46.49671875 70.49804688 47.1953125 C72.66184572 48.58926007 74.83133499 49.97440638 77.00585938 51.3515625 C78.03904297 52.02445312 79.07222656 52.69734375 80.13671875 53.390625 C81.07217529 53.98907227 82.00763184 54.58751953 82.97143555 55.20410156 C83.64086182 55.79674805 84.31028809 56.38939453 85 57 C85 58.32 85 59.64 85 61 C82.9375 62.75390625 82.9375 62.75390625 80 64.5625 C78.90171875 65.25859375 77.8034375 65.9546875 76.671875 66.671875 C76.07568359 67.04634766 75.47949219 67.42082031 74.86523438 67.80664062 C71.60405934 69.89310968 68.43192168 72.10783559 65.25 74.3125 C63.87645572 75.25933749 62.50275617 76.20594979 61.12890625 77.15234375 C60.44328613 77.62526855 59.75766602 78.09819336 59.05126953 78.58544922 C55.76528709 80.8514552 52.4765596 83.11346363 49.1875 85.375 C48.53555664 85.82335205 47.88361328 86.2717041 47.21191406 86.73364258 C41.17248965 90.88519742 35.1232136 95.02230231 29.07373047 99.15917969 C22.02510096 103.98034499 14.986731 108.81630573 7.95166016 113.65722656 C4.63508236 115.93908519 1.3174829 118.21945755 -2 120.5 C-3.33333808 121.41665976 -4.66667142 122.33332642 -6 123.25 C-8.66666667 125.08333333 -11.33333333 126.91666667 -14 128.75 C-14.6597583 129.20358887 -15.3195166 129.65717773 -15.99926758 130.12451172 C-17.33502333 131.04283361 -18.67079812 131.9611278 -20.0065918 132.87939453 C-23.30301745 135.14551157 -26.59913027 137.41208059 -29.89453125 139.6796875 C-37.89670733 145.18518464 -45.90854995 150.67634388 -53.92626953 156.15917969 C-59.01762028 159.64159333 -64.10467096 163.13016197 -69.1875 166.625 C-69.82574707 167.06303955 -70.46399414 167.5010791 -71.12158203 167.95239258 C-74.58443527 170.33063916 -78.03739823 172.72209247 -81.48046875 175.12890625 C-82.21563721 175.64050293 -82.95080566 176.15209961 -83.70825195 176.67919922 C-85.124818 177.6652888 -86.53883591 178.65505168 -87.94995117 179.64892578 C-92.77503108 183 -92.77503108 183 -95 183 C-95.51607101 167.87591921 -95.90288594 152.75224435 -96.13986778 137.62131405 C-96.2528878 130.59341037 -96.40661492 123.57100232 -96.65966797 116.54663086 C-96.9041298 109.75744608 -97.030491 102.97394623 -97.08729935 96.18063545 C-97.12773291 93.59920319 -97.20671342 91.0180586 -97.32606125 88.43906975 C-98.19828716 68.79689672 -98.19828716 68.79689672 -92.8706131 62.47206497 C-87.64803518 57.90071834 -81.86607296 54.57135705 -75.70395279 51.43086433 C-71.77852895 49.353628 -68.22414542 46.83892672 -64.625 44.25 C-63.34423262 43.36460027 -62.06190569 42.48144794 -60.77734375 41.6015625 C-60.15456543 41.17262695 -59.53178711 40.74369141 -58.89013672 40.30175781 C-48.97014205 33.46974908 -39.03895216 26.65432218 -29.09570312 19.85620117 C-23.13925087 15.78275247 -17.19078474 11.6978294 -11.25 7.6015625 C-7.52174759 5.03391745 -3.77282545 2.50173571 0 0 Z " fill="#0071BC" transform="translate(396,228)"/>
<path d="M0 0 C0.35132115 15.19432208 0.61535424 30.3884566 0.77718258 45.58593464 C0.85434369 52.64371783 0.95940272 59.69896966 1.1315918 66.75512695 C1.29781156 73.5699509 1.3843512 80.38214952 1.42315865 87.19887352 C1.45079758 89.79428598 1.50477753 92.38956048 1.58595085 94.98385048 C2.17939202 114.74271388 2.17939202 114.74271388 -1.42402267 120.1283226 C-4.81399788 123.61253814 -8.65553833 125.90485367 -13.01182365 127.99481869 C-16.3560135 129.6855727 -19.36883971 131.86074352 -22.4375 134 C-23.68609165 134.82635068 -24.93570521 135.65116592 -26.1875 136.47265625 C-30.13738898 139.07978658 -34.04119169 141.75114287 -37.9375 144.4375 C-38.60346191 144.89656738 -39.26942383 145.35563477 -39.95556641 145.82861328 C-41.30293903 146.75800416 -42.65010705 147.68769172 -43.99707031 148.61767578 C-47.26626779 150.87391617 -50.53929935 153.12457272 -53.8125 155.375 C-54.46250977 155.82206299 -55.11251953 156.26912598 -55.78222656 156.72973633 C-59.44283267 159.24629169 -63.10657563 161.75819274 -66.7734375 164.265625 C-67.58369385 164.81992188 -68.3939502 165.37421875 -69.22875977 165.9453125 C-70.85552323 167.05663537 -72.48359766 168.16604191 -74.11303711 169.2734375 C-77.75375952 171.75222722 -81.36986162 174.24931528 -84.91796875 176.859375 C-85.50811768 177.28782715 -86.0982666 177.7162793 -86.70629883 178.15771484 C-88.25764396 179.28939105 -89.79730454 180.43703743 -91.3359375 181.5859375 C-94.60965194 183.32359824 -95.5176504 183.06616285 -99 182 C-101.47924805 180.42919922 -101.47924805 180.42919922 -104.07421875 178.4296875 C-109.84325641 174.09155669 -115.78553479 170.09369239 -121.8125 166.125 C-129.37448951 161.1174257 -136.82983389 156.02864098 -144.16796875 150.69921875 C-150.44621779 146.21375276 -156.93766552 142.02596287 -163.38867188 137.79492188 C-169.47622965 133.77785322 -175.32240326 129.57962552 -181 125 C-177.23343673 120.98137226 -173.25925046 117.92730097 -168.6875 114.875 C-167.24989972 113.90118968 -165.81240252 112.92722719 -164.375 111.953125 C-163.64539063 111.46134766 -162.91578125 110.96957031 -162.1640625 110.46289062 C-158.82382716 108.20491565 -155.5065376 105.91396265 -152.1875 103.625 C-145.49110738 99.01827944 -138.78294001 94.42884487 -132.07373047 89.84082031 C-125.02510096 85.01965501 -117.986731 80.18369427 -110.95166016 75.34277344 C-107.63508236 73.06091481 -104.3174829 70.78054245 -101 68.5 C-99.66666192 67.58334024 -98.33332858 66.66667358 -97 65.75 C-93 63 -93 63 -89 60.25 C-88.01036255 59.5696167 -88.01036255 59.5696167 -87.00073242 58.87548828 C-85.66497667 57.95716639 -84.32920188 57.0388722 -82.9934082 56.12060547 C-79.69698255 53.85448843 -76.40086973 51.58791941 -73.10546875 49.3203125 C-65.10329267 43.81481536 -57.09145005 38.32365612 -49.07373047 32.84082031 C-43.9823812 29.35840768 -38.89498013 25.87034392 -33.8125 22.375 C-33.16917725 21.93260986 -32.52585449 21.49021973 -31.86303711 21.03442383 C-28.49613978 18.71854388 -25.13044663 16.40092594 -21.765625 14.08203125 C-1.32465074 0 -1.32465074 0 0 0 Z " fill="#0071BC" transform="translate(199,89)"/>
<path d="M0 0 C4.46595774 0.91195454 7.65576064 3.33690784 11.3125 5.9375 C12.73498902 6.9332753 14.15818475 7.92804171 15.58203125 8.921875 C16.3085791 9.43041016 17.03512695 9.93894531 17.78369141 10.46289062 C21.32429624 12.91845881 24.90984332 15.30520593 28.5 17.6875 C29.15266846 18.12118896 29.80533691 18.55487793 30.4777832 19.00170898 C31.98450091 20.00217607 33.49213814 21.00125816 35 22 C33.26995365 25.76539499 30.99606089 29.13617647 28.6875 32.5625 C28.25236084 33.21162354 27.81722168 33.86074707 27.36889648 34.52954102 C19.39441026 46.39688532 11.26901248 58.16259948 3.16430664 69.94116211 C-0.39926238 75.12143428 -3.95097321 80.30975659 -7.5 85.5 C-11.93577763 91.98706446 -16.38103266 98.46746559 -20.8359375 104.94140625 C-24.39930599 110.12167894 -27.95103702 115.30984992 -31.5 120.5 C-35.93577763 126.98706446 -40.38103266 133.46746559 -44.8359375 139.94140625 C-48.39930611 145.12167911 -51.95098223 150.30988723 -55.5 155.5 C-72.38505227 180.18833359 -72.38505227 180.18833359 -80 191 C-85.00115917 189.3753573 -88.85647294 186.42931526 -93.0625 183.375 C-94.57201908 182.29301747 -96.08244208 181.21229497 -97.59375 180.1328125 C-98.33625 179.60204102 -99.07875 179.07126953 -99.84375 178.52441406 C-104.48893019 175.24038948 -109.24171813 172.11717887 -114 169 C-113.51478578 163.92465929 -111.01123788 160.70477806 -108.125 156.6875 C-107.11437757 155.25014465 -106.10396659 153.81264061 -105.09375 152.375 C-104.31837891 151.28058594 -104.31837891 151.28058594 -103.52734375 150.1640625 C-101.19534077 146.85989459 -98.91073148 143.52376138 -96.625 140.1875 C-95.71104161 138.85800134 -94.796977 137.52857569 -93.8828125 136.19921875 C-90.19272839 130.82730295 -86.51506626 125.44689394 -82.83642578 120.06713867 C-78.95455216 114.39146469 -75.06204784 108.72320987 -71.1640625 103.05859375 C-67.60069401 97.87832106 -64.04896298 92.69015008 -60.5 87.5 C-56.06422237 81.01293554 -51.61896734 74.53253441 -47.1640625 68.05859375 C-43.60069401 62.87832106 -40.04896298 57.69015008 -36.5 52.5 C-32.06812121 46.01863735 -27.6285714 39.54268337 -23.17504883 33.07617188 C-20.65259166 29.41147861 -18.13999877 25.74032497 -15.63671875 22.0625 C-15.06308594 21.22074219 -14.48945313 20.37898438 -13.8984375 19.51171875 C-12.79401354 17.89038404 -11.69104214 16.26805847 -10.58984375 14.64453125 C-7.19148859 9.65856068 -3.66256831 4.79522879 0 0 Z " fill="#0071BC" transform="translate(290,155)"/>
</svg>
