<?xml version="1.0" encoding="UTF-8"?>
<svg version="1.1" xmlns="http://www.w3.org/2000/svg" width="500" height="500">
<path d="M0 0 C3.31773811 1.29013305 6.15585357 2.61908967 9.08203125 4.65234375 C10.21995117 5.43738281 10.21995117 5.43738281 11.38085938 6.23828125 C12.18330078 6.79902344 12.98574219 7.35976563 13.8125 7.9375 C14.65490234 8.52015625 15.49730469 9.1028125 16.36523438 9.703125 C18.09198188 10.89766472 19.81740889 12.09411554 21.54150391 13.29248047 C25.01895954 15.70770636 28.50944297 18.10377016 32 20.5 C33.30211457 21.39578793 34.60419745 22.29162193 35.90625 23.1875 C40.43235211 26.2991952 44.96606871 29.39972827 49.5 32.5 C58.65719059 38.76200399 67.79975512 45.04507077 76.93847656 51.33398438 C84.78511438 56.73322788 92.63776368 62.12348984 100.5 67.5 C108.35787815 72.87352988 116.20611092 78.2608901 124.04833984 83.65722656 C127.36491763 85.93908519 130.68250537 88.21947463 134 90.5 C137.96532693 93.22586084 141.93047898 95.95197322 145.89453125 98.6796875 C153.08951158 103.62983397 160.29109454 108.57015127 167.5 113.5 C173.5860349 117.66273179 179.6710992 121.82685469 185.75 126 C186.38099609 126.43248047 187.01199219 126.86496094 187.66210938 127.31054688 C188.82440118 128.10907747 189.98008062 128.9173801 191.1267004 129.7382555 C192.94974855 131.02308414 192.94974855 131.02308414 194.84663486 131.93101788 C196.96208248 133.10143303 198.41597194 134.16244933 200 136 C201.0255977 139.79245522 200.88527563 143.49231129 200.79467773 147.3996582 C200.79569992 148.55130966 200.79672211 149.70296112 200.79777527 150.88951111 C200.79290033 154.69420863 200.7384558 158.49650326 200.68359375 162.30078125 C200.67053742 164.93921091 200.66057342 167.57765754 200.65357971 170.21611023 C200.63184288 176.44956759 200.57442887 182.68216316 200.50413328 188.91524142 C200.4258272 196.01304466 200.38738793 203.11088957 200.35226524 210.2090174 C200.27914317 224.80645568 200.15605897 239.40321578 200 254 C196.49154622 252.26609652 193.14351314 250.5508544 189.92578125 248.3203125 C188.81589844 247.55557617 188.81589844 247.55557617 187.68359375 246.77539062 C186.90113281 246.23076172 186.11867188 245.68613281 185.3125 245.125 C183.61074655 243.95042018 181.90892165 242.77594388 180.20703125 241.6015625 C178.90886475 240.7029248 178.90886475 240.7029248 177.58447266 239.78613281 C173.56644044 237.0092649 169.53290405 234.25520214 165.5 231.5 C163.92049299 230.41938765 162.34106617 229.33865808 160.76171875 228.2578125 C157.55632487 226.06461356 154.3505569 223.87196282 151.14453125 221.6796875 C143.10876677 216.18426147 135.07771244 210.68219961 127.05786133 205.16357422 C121.87784943 201.60034416 116.68989544 198.04881561 111.5 194.5 C103.64210292 189.1264979 95.79388899 183.73910984 87.95166016 178.34277344 C85.30434037 176.52137503 82.65635259 174.70094917 80.00830078 172.88061523 C78.66675339 171.95836256 77.32528233 171.03599883 75.98388672 170.11352539 C72.73929087 167.88232419 69.49384001 165.65239463 66.24609375 163.42578125 C58.43293833 158.06622724 50.64756543 152.66826568 42.875 147.25 C34.98491303 141.75236135 27.0709903 136.29155059 19.125 130.875 C18.24054199 130.27204102 17.35608398 129.66908203 16.44482422 129.04785156 C11.76055639 125.7545731 11.76055639 125.7545731 6.8058157 122.91606903 C0.50251573 119.49063368 0.50251573 119.49063368 -0.81971741 115.56843758 C-1.10986721 112.50785073 -1.11364961 109.5600363 -1.02172852 106.48681641 C-1.02304276 105.33501892 -1.02435699 104.18322144 -1.02571106 102.996521 C-1.01945007 99.19663858 -0.94949419 95.40074908 -0.87890625 91.6015625 C-0.86211682 88.96457082 -0.84930724 86.32755104 -0.84031677 83.69052124 C-0.81238619 77.46390837 -0.73859423 71.23872428 -0.64817137 65.01273954 C-0.54743708 57.92224854 -0.49805694 50.83168786 -0.45291245 43.740659 C-0.35893726 29.15970358 -0.20072133 14.57987178 0 0 Z " fill="#0A714E" transform="translate(299,21)"/>
<path d="M0 0 C3.07759277 1.20052323 5.75806881 2.34860394 8.43359375 4.29296875 C9.07111572 4.7506665 9.7086377 5.20836426 10.36547852 5.67993164 C11.39112915 6.42617798 11.39112915 6.42617798 12.4375 7.1875 C19.25117319 12.07222239 26.12724642 16.85195427 33.0625 21.5625 C34.94141125 22.8398364 36.82031757 24.11718004 38.69921875 25.39453125 C39.59946777 26.00635254 40.4997168 26.61817383 41.42724609 27.24853516 C45.08408797 29.73801927 48.73105524 32.24168842 52.375 34.75 C53.33031616 35.40754272 53.33031616 35.40754272 54.30493164 36.07836914 C55.56892917 36.94861209 56.83284606 37.81897217 58.09667969 38.68945312 C61.39646954 40.9615506 64.69835742 43.23059602 68 45.5 C71.96534094 48.22584044 75.930479 50.95197323 79.89453125 53.6796875 C87.89888254 59.18668119 95.91278814 64.67950209 103.93286133 70.16357422 C109.60853531 74.04544784 115.27679013 77.93795216 120.94140625 81.8359375 C126.12167894 85.39930599 131.30984992 88.95103702 136.5 92.5 C142.98706446 96.93577763 149.46746559 101.38103266 155.94140625 105.8359375 C161.12167927 109.39930622 166.30992462 112.95092735 171.5 116.5 C174.66687267 118.66636568 177.83349395 120.83309847 181 123 C181.78665039 123.53818359 182.57330078 124.07636719 183.38378906 124.63085938 C185.63165511 126.16941546 187.87848398 127.70947357 190.125 129.25 C190.80626953 129.71599609 191.48753906 130.18199219 192.18945312 130.66210938 C196.88537355 133.88537355 196.88537355 133.88537355 198 135 C198.09581822 136.53085839 198.12188108 138.06613756 198.12025452 139.59999084 C198.12231651 141.09135811 198.12231651 141.09135811 198.12442017 142.612854 C198.12082489 143.71264587 198.11722961 144.81243774 198.11352539 145.94555664 C198.11367142 147.09662399 198.11381744 148.24769135 198.1139679 149.43363953 C198.11326818 153.25916391 198.10547302 157.08464031 198.09765625 160.91015625 C198.09579228 163.55431593 198.09436828 166.19847596 198.09336853 168.84263611 C198.09025549 175.10415417 198.08204248 181.36565486 198.07201904 187.62716526 C198.06085705 194.75401537 198.05534724 201.8808663 198.05032361 209.00772297 C198.03985984 223.6718243 198.02226093 238.33591191 198 253 C196.57842877 252.22280865 195.15840234 251.44279135 193.73901367 250.66162109 C192.55259529 250.01052872 192.55259529 250.01052872 191.34220886 249.34628296 C187.83230177 247.32881638 184.58485007 245.00212656 181.3125 242.625 C174.58101935 237.8048429 167.78567569 233.09038403 160.9375 228.4375 C159.99841797 227.7990918 159.05933594 227.16068359 158.09179688 226.50292969 C156.2477994 225.24939691 154.40372597 223.99597584 152.55957031 222.74267578 C148.96929649 220.29824861 145.38956766 217.83869682 141.8125 215.375 C136.04873916 211.40627903 130.27672957 207.4498215 124.5 203.5 C116.642084 198.12652566 108.7938889 192.73910978 100.95166016 187.34277344 C97.63508237 185.06091481 94.31749463 182.78052537 91 180.5 C87.03467307 177.77413916 83.06952102 175.04802678 79.10546875 172.3203125 C71.91048865 167.37016619 64.70895763 162.42977219 57.5 157.5 C49.64212185 152.12647012 41.79388908 146.7391099 33.95166016 141.34277344 C31.38707699 139.57829916 28.82186577 137.81473927 26.2565918 136.05126953 C24.93716727 135.14424547 23.62355173 134.22844778 22.3250246 133.29175091 C18.90741849 130.86446278 15.59602148 128.73510565 11.77368164 127.00187683 C7.1103394 124.71425932 3.06652078 122.28349112 0 118 C-2.89030437 109.48626126 -1.85768262 99.95765916 -1.5625 91.11328125 C-1.53262789 88.48348393 -1.50986669 85.85359707 -1.49389648 83.22367859 C-1.44439045 77.0311369 -1.31344123 70.84317781 -1.15230465 64.65264434 C-0.97272872 57.59876116 -0.88531707 50.54464503 -0.80517769 43.48904097 C-0.63845622 28.99034218 -0.35750075 14.49523515 0 0 Z " fill="#0A714E" transform="translate(0,227)"/>
<path d="M0 0 C7.26669303 4.56868068 14.42330101 9.26779648 21.5 14.125 C22.4485083 14.77388184 23.3970166 15.42276367 24.37426758 16.09130859 C26.31725703 17.42078215 28.25972589 18.75101688 30.20166016 20.08203125 C32.79346039 21.85843874 35.38661021 23.63284983 37.98046875 25.40625 C44.28293525 29.71570082 50.58369614 34.02761061 56.87890625 38.34765625 C58.50259744 39.46094731 60.12629529 40.57422865 61.75 41.6875 C62.53052734 42.22366943 63.31105469 42.75983887 64.11523438 43.31225586 C67.89533536 45.90254546 71.68965529 48.46441764 75.52734375 50.96875 C76.23084961 51.42934814 76.93435547 51.88994629 77.65917969 52.36450195 C78.98001109 53.22603124 80.3047159 54.08166033 81.63378906 54.93041992 C83.12373794 55.90262194 84.56779535 56.94457863 86 58 C86 58.66 86 59.32 86 60 C83.86426437 61.56804728 81.72928517 63.01276887 79.5 64.4375 C78.11255763 65.34264177 76.72586264 66.24893 75.33984375 67.15625 C74.62038574 67.62546875 73.90092773 68.0946875 73.15966797 68.578125 C69.76042026 70.81611038 66.41065382 73.12404174 63.0625 75.4375 C62.39992188 75.89439209 61.73734375 76.35128418 61.0546875 76.82202148 C59.70825341 77.75062478 58.36206194 78.67957997 57.01611328 79.60888672 C53.68051444 81.91044184 50.34002759 84.204879 47 86.5 C45.66664292 87.41663212 44.33330959 88.3332988 43 89.25 C40.33333333 91.08333333 37.66666667 92.91666667 35 94.75 C34.3402417 95.20358887 33.6804834 95.65717773 33.00073242 96.12451172 C31.66497667 97.04283361 30.32920188 97.9611278 28.9934082 98.87939453 C25.69698255 101.14551157 22.40086973 103.41208059 19.10546875 105.6796875 C11.10329267 111.18518464 3.09145005 116.67634388 -4.92626953 122.15917969 C-11.97489904 126.98034499 -19.013269 131.81630573 -26.04833984 136.65722656 C-29.36491764 138.93908519 -32.6825171 141.21945755 -36 143.5 C-37.33333808 144.41665976 -38.66667142 145.33332642 -40 146.25 C-48 151.75 -56 157.25 -64 162.75 C-64.6609668 163.20455566 -65.32193359 163.65911133 -66.00292969 164.12744141 C-67.32596502 165.03674515 -68.64952643 165.94528395 -69.97363281 166.85302734 C-73.46939835 169.25108456 -76.95295233 171.66480394 -80.421875 174.1015625 C-81.14632813 174.60751953 -81.87078125 175.11347656 -82.6171875 175.63476562 C-84.00601422 176.60516378 -85.39161537 177.58020009 -86.7734375 178.56054688 C-89.82986704 180.68935634 -92.35319135 182.25175833 -96 183 C-96.2808452 167.90116671 -96.49218383 152.80245405 -96.62174606 137.70159245 C-96.68351657 130.68908732 -96.76765539 123.67820871 -96.90527344 116.66674805 C-97.03807545 109.89740608 -97.10745032 103.12975281 -97.13852692 96.35918999 C-97.16066585 93.77902092 -97.20390185 91.19894224 -97.26876068 88.61949348 C-97.78271264 67.3288037 -97.78271264 67.3288037 -93.46083069 62.50950623 C-90.38413063 60.16271734 -87.51414028 58.59277546 -84 57 C-81.96795162 55.66454701 -79.95321798 54.30199486 -77.96484375 52.90234375 C-75.95812093 51.57710036 -73.94900546 50.2554728 -71.9375 48.9375 C-65.0940094 44.44438835 -58.37697134 39.84961471 -51.77954102 35.00219727 C-45.96727557 30.81542617 -39.94357342 26.93715886 -33.9609375 23 C-28.0328505 19.07857811 -22.24123928 15.02418552 -16.51318359 10.81640625 C-13.19068437 8.41506623 -9.78102152 6.18287693 -6.3125 4 C-5.3853418 3.41025391 -5.3853418 3.41025391 -4.43945312 2.80859375 C-2.9616518 1.86921617 -1.48114601 0.934095 0 0 Z " fill="#053827" transform="translate(395,228)"/>
<path d="M0 0 C0.53974251 15.10660499 0.94402534 30.21276555 1.19167995 45.32687378 C1.30979601 52.34718942 1.47041704 59.36148434 1.73510742 66.37792969 C1.99085765 73.16068357 2.12281626 79.93721305 2.18217659 86.7244873 C2.2244203 89.30238844 2.30693817 91.87997778 2.43179131 94.4552002 C3.34216019 114.02540241 3.34216019 114.02540241 -2.18598557 120.59963989 C-7.6014273 125.39367901 -13.6105568 128.93459612 -19.972929 132.32124329 C-24.97009751 135.09257907 -29.57994726 138.40516045 -34.25 141.6875 C-36.06833377 142.92868505 -37.88840225 144.16733634 -39.7109375 145.40234375 C-44.77151291 148.84297994 -49.82489652 152.29401564 -54.875 155.75 C-55.65230469 156.28173828 -56.42960937 156.81347656 -57.23046875 157.36132812 C-61.57656537 160.33594079 -65.91697341 163.31858611 -70.25097656 166.31079102 C-72.20766113 167.65834161 -74.16998692 168.99735399 -76.1328125 170.3359375 C-78.82502402 172.17595789 -81.47725004 174.06238961 -84.1171875 175.9765625 C-85.45297894 176.92208138 -86.78891137 177.86740111 -88.125 178.8125 C-88.72860352 179.26391357 -89.33220703 179.71532715 -89.95410156 180.18041992 C-91.6953125 181.39453125 -91.6953125 181.39453125 -95 183 C-99.43169576 181.96536286 -102.53936136 180.131802 -106.125 177.38671875 C-111.96519014 173.0095357 -117.95276752 168.89715915 -124 164.8125 C-125.65632289 163.68999275 -127.31264411 162.56748298 -128.96871948 161.4446106 C-130.61462671 160.32873566 -132.26092449 159.21343685 -133.90722656 158.09814453 C-138.23774547 155.16031066 -142.55777808 152.20732671 -146.875 149.25 C-147.62547607 148.73614746 -148.37595215 148.22229492 -149.14916992 147.69287109 C-151.43299345 146.12889217 -153.71652527 144.56448813 -156 143 C-159.43717023 140.64535141 -162.87474287 138.29129161 -166.3125 135.9375 C-167.09544434 135.40092773 -167.87838867 134.86435547 -168.68505859 134.31152344 C-169.79421631 133.55210449 -169.79421631 133.55210449 -170.92578125 132.77734375 C-171.62010254 132.29894043 -172.31442383 131.82053711 -173.02978516 131.32763672 C-174.29397269 130.47575917 -175.57411997 129.64684511 -176.87255859 128.84814453 C-178.54296875 127.81640625 -178.54296875 127.81640625 -181 126 C-181 125.01 -181 124.02 -181 123 C-179.234375 121.45703125 -179.234375 121.45703125 -176.75 119.8125 C-175.83943848 119.20180664 -174.92887695 118.59111328 -173.99072266 117.96191406 C-173.00378418 117.31448242 -172.0168457 116.66705078 -171 116 C-168.9659496 114.64091864 -166.93209662 113.28154178 -164.8984375 111.921875 C-163.38781738 110.91930664 -163.38781738 110.91930664 -161.84667969 109.89648438 C-158.07897935 107.38640751 -154.34867929 104.82472326 -150.625 102.25 C-149.34650343 101.36957488 -148.06785882 100.48936469 -146.7890625 99.609375 C-146.16676758 99.18076172 -145.54447266 98.75214844 -144.90332031 98.31054688 C-141.60353046 96.0384494 -138.30164258 93.76940398 -135 91.5 C-131.03465906 88.77415956 -127.069521 86.04802677 -123.10546875 83.3203125 C-115.10329267 77.81481536 -107.09145005 72.32365612 -99.07373047 66.84082031 C-92.02510096 62.01965501 -84.986731 57.18369427 -77.95166016 52.34277344 C-74.63508236 50.06091481 -71.3174829 47.78054245 -68 45.5 C-66.66666192 44.58334024 -65.33332858 43.66667358 -64 42.75 C-40 26.25 -40 26.25 -37.99853516 24.87402344 C-36.67004661 23.96066728 -35.34159587 23.04725614 -34.01318359 22.13378906 C-30.60603853 19.79101103 -27.19816927 17.44929771 -23.7890625 15.109375 C-23.09699707 14.63411377 -22.40493164 14.15885254 -21.69189453 13.66918945 C-20.33124048 12.7349251 -18.97024665 11.8011554 -17.60888672 10.86791992 C-12.97120235 7.68393332 -8.37767562 4.44282626 -3.8203125 1.14453125 C-2 0 -2 0 0 0 Z " fill="#053827" transform="translate(198,89)"/>
<path d="M0 0 C4.08163407 0.71418044 6.33253554 1.6975357 9.625 4.25 C15.03910898 8.33106152 20.58306545 12.18461336 26.1875 16 C27.48131592 16.88220215 27.48131592 16.88220215 28.80126953 17.78222656 C30.86657376 19.18953939 32.93278784 20.59549188 35 22 C33.60594705 25.86780929 31.7982636 29.01007703 29.47265625 32.39453125 C28.76850586 33.42433105 28.06435547 34.45413086 27.33886719 35.51513672 C26.5801819 36.61432945 25.82139059 37.713449 25.0625 38.8125 C24.28375361 39.94778728 23.50543623 41.08336895 22.72753906 42.21923828 C20.4904094 45.48321553 18.24544085 48.74173533 16 52 C14.96184785 53.51144976 13.92402822 55.02312803 12.88671875 56.53515625 C11.15085871 59.06417611 9.41244301 61.59140579 7.671875 64.1171875 C4.60422748 68.57104266 1.55228552 73.03560924 -1.5 77.5 C-5.93573206 83.98709553 -10.38103275 90.46746572 -14.8359375 96.94140625 C-18.39930599 102.12167894 -21.95103702 107.30984992 -25.5 112.5 C-29.93577763 118.98706446 -34.38103266 125.46746559 -38.8359375 131.94140625 C-42.39930603 137.121679 -45.95101877 142.30986235 -49.5 147.5 C-53.97701551 154.04692721 -58.45579465 160.59261625 -62.95898438 167.12158203 C-65.33155219 170.56285055 -67.68765262 174.01410429 -70.0234375 177.48046875 C-70.52149902 178.21563721 -71.01956055 178.95080566 -71.53271484 179.70825195 C-72.48810663 181.11908426 -73.43918575 182.53284979 -74.38525391 183.94995117 C-76.42096621 186.94703567 -77.95080059 188.96720039 -81 191 C-84.30835024 188.83477891 -87.59702331 186.64159105 -90.875 184.43066406 C-92.42466357 183.38734736 -93.97713592 182.34819907 -95.53125 181.31152344 C-98.28059191 179.47171597 -101.01603699 177.61256685 -103.75 175.75 C-104.65588867 175.14784668 -105.56177734 174.54569336 -106.49511719 173.92529297 C-107.33719727 173.34666504 -108.17927734 172.76803711 -109.046875 172.171875 C-109.80838867 171.6572168 -110.56990234 171.14255859 -111.35449219 170.61230469 C-111.89750977 170.08024414 -112.44052734 169.54818359 -113 169 C-113 164.41586613 -112.22037644 163.3778748 -109.66796875 159.703125 C-108.95737305 158.67010254 -108.24677734 157.63708008 -107.51464844 156.57275391 C-106.73909767 155.46505346 -105.9633779 154.35747133 -105.1875 153.25 C-104.39919196 152.11046681 -103.61176159 150.97032599 -102.82519531 149.82958984 C-101.26575378 147.57080926 -99.70152162 145.31549037 -98.13232422 143.06347656 C-95.91820561 139.8824873 -93.72127754 136.69025356 -91.53051758 133.49316406 C-90.24725656 131.62099756 -88.96002581 129.75161718 -87.671875 127.8828125 C-84.60422748 123.42895734 -81.55228552 118.96439076 -78.5 114.5 C-74.06426794 108.01290447 -69.61896725 101.53253428 -65.1640625 95.05859375 C-61.60069401 89.87832106 -58.04896298 84.69015008 -54.5 79.5 C-50.06422237 73.01293554 -45.61896734 66.53253441 -41.1640625 60.05859375 C-37.60069401 54.87832106 -34.04896298 49.69015008 -30.5 44.5 C-26.07224956 38.02467482 -21.6351264 31.55594024 -17.18823242 25.09375 C-11.44223807 16.74053308 -5.72194579 8.36969976 0 0 Z " fill="#053827" transform="translate(288,155)"/>
</svg>
